#!OML:ASF H:\Dans Jumps\Project 1\Capture day 1\Session 1\subject.ASF
:FULLY-SPECIFIED
:DEGREES
187
root 0.213826 20.5344 -8.34237 6.74897 4.30812 0.484659
lowerback 3.22874 -1.02818 -2.42854
upperback 3.38596 -1.42433 1.2317
thorax 1.76044 -0.778141 2.64933
lowerneck -10.635 -0.295215 -3.10693
upperneck 32.3968 -0.444457 2.41664
head 12.4819 -0.262621 1.41065
rclavicle -6.36111e-015 3.97569e-016
rhumerus -18.8251 -2.03667 -81.843
rradius 38.7964
rwrist 23.1246
rhand -17.086 -22.6558
rfingers 7.12502
rthumb 9.1524 -52.4372
lclavicle -6.36111e-015 3.97569e-016
lhumerus -12.3886 -14.0993 87.6229
lradius 37.3177
lwrist 23.6285
lhand -26.5185 -5.94931
lfingers 7.12502
lthumb 0.044951 24.0304
rfemur -21.478 -5.16668 17.7139
rtibia 35.6999
rfoot 18.5652 -7.24599
rtoes 24.0825
lfemur -22.583 4.63795 -17.0003
ltibia 34.5704
lfoot 24.8136 -1.41454
ltoes 7.90155
188
root 0.211064 20.5277 -8.24531 6.77518 4.34356 0.403444
lowerback 3.5158 -1.01982 -2.34678
upperback 3.40312 -1.41724 1.25338
thorax 1.61546 -0.771249 2.63144
lowerneck -10.8112 -0.303857 -3.0503
upperneck 32.5125 -0.462349 2.4041
head 12.5679 -0.265143 1.39581
rclavicle 2.37548e-014 -3.77691e-015
rhumerus -18.7817 -2.57628 -81.8354
rradius 38.2043
rwrist 23.4306
rhand -17.1373 -22.6733
rfingers 7.12502
rthumb 9.10288 -52.4568
lclavicle 2.37548e-014 -3.77691e-015
lhumerus -12.4718 -13.5443 87.7395
lradius 36.7999
lwrist 23.2555
lhand -26.4682 -5.87776
lfingers 7.12502
lthumb 0.0935894 24.102
rfemur -22.1793 -5.15044 17.8007
rtibia 34.6091
rfoot 17.695 -7.21169
rtoes 23.6535
lfemur -23.1954 4.67897 -16.9893
ltibia 33.8283
lfoot 24.0903 -1.58345
ltoes 7.60915
189
root 0.208779 20.5096 -8.14739 6.83864 4.38132 0.32463
lowerback 3.75838 -1.00918 -2.25621
upperback 3.4125 -1.40549 1.27117
thorax 1.48682 -0.762019 2.60364
lowerneck -10.9596 -0.319845 -3.01207
upperneck 32.5872 -0.497146 2.42268
head 12.6317 -0.27323 1.39312
rclavicle 1.47101e-014 -5.1684e-015
rhumerus -18.7465 -3.12553 -81.8235
rradius 37.5869
rwrist 23.7245
rhand -17.1785 -22.7143
rfingers 7.12502
rthumb 9.06309 -52.4996
lclavicle 1.47101e-014 -5.1684e-015
lhumerus -12.5556 -12.9761 87.8528
lradius 36.2503
lwrist 22.8985
lhand -26.47 -5.69979
lfingers 7.12502
lthumb 0.0917649 24.2799
rfemur -22.9095 -5.14956 17.8811
rtibia 33.4435
rfoot 17.0166 -7.14902
rtoes 23.3259
lfemur -23.8216 4.69821 -16.98
ltibia 32.9718
lfoot 23.4 -1.93278
ltoes 7.28378
190
root 0.206834 20.4804 -8.04832 6.92986 4.4083 0.251795
lowerback 3.96239 -0.991573 -2.16422
upperback 3.41402 -1.38323 1.28361
thorax 1.3709 -0.747608 2.56849
lowerneck -11.0959 -0.339784 -2.98988
upperneck 32.6399 -0.542623 2.46784
head 12.6844 -0.284433 1.40167
rclavicle 6.75868e-015 -2.78299e-015
rhumerus -18.7232 -3.67955 -81.8093
rradius 36.945
rwrist 24.0115
rhand -17.229 -22.7928
rfingers 7.12502
rthumb 9.01438 -52.5802
lclavicle 6.75868e-015 -2.78299e-015
lhumerus -12.6339 -12.4202 87.9603
lradius 35.6579
lwrist 22.5894
lhand -26.5343 -5.47587
lfingers 7.12502
lthumb 0.0297445 24.5039
rfemur -23.6608 -5.14641 17.9504
rtibia 32.2243
rfoot 16.5482 -7.04769
rtoes 23.0548
lfemur -24.4426 4.70444 -16.9753
ltibia 31.9984
lfoot 22.7656 -2.43683
ltoes 6.95411
191
root 0.205054 20.44 -7.94795 7.03583 4.41504 0.183452
lowerback 4.13025 -0.963708 -2.07393
upperback 3.41102 -1.34634 1.29171
thorax 1.2697 -0.726101 2.52863
lowerneck -11.2136 -0.364703 -2.9789
upperneck 32.6675 -0.598005 2.52868
head 12.7231 -0.299216 1.41643
rclavicle -1.23743e-014 5.96354e-015
rhumerus -18.7115 -4.23973 -81.7921
rradius 36.2737
rwrist 24.3082
rhand -17.2886 -22.8997
rfingers 7.12502
rthumb 8.95683 -52.6896
lclavicle -1.23743e-014 5.96354e-015
lhumerus -12.7177 -11.8537 88.0664
lradius 35.0203
lwrist 22.2907
lhand -26.6285 -5.30134
lfingers 7.12502
lthumb -0.0613025 24.6784
rfemur -24.4193 -5.12956 18.0094
rtibia 30.9716
rfoot 16.2672 -6.90848
rtoes 22.7514
lfemur -25.0366 4.70656 -16.9736
ltibia 30.9094
lfoot 22.1806 -3.05469
ltoes 6.5542
192
root 0.203302 20.3882 -7.84593 7.1438 4.39665 0.126814
lowerback 4.27167 -0.923819 -1.99464
upperback 3.40205 -1.29303 1.2925
thorax 1.17639 -0.696627 2.48631
lowerneck -11.3102 -0.39286 -2.97153
upperneck 32.6837 -0.660255 2.59739
head 12.7529 -0.316398 1.43367
rclavicle -2.53947e-014 3.97569e-015
rhumerus -18.7177 -4.80257 -81.7736
rradius 35.5681
rwrist 24.6311
rhand -17.3638 -23.0235
rfingers 7.12502
rthumb 8.88427 -52.8165
lclavicle -2.53947e-014 3.97569e-015
lhumerus -12.8152 -11.2878 88.1709
lradius 34.3285
lwrist 21.9887
lhand -26.7485 -5.22625
lfingers 7.12502
lthumb -0.177211 24.7534
rfemur -25.1697 -5.09617 18.0503
rtibia 29.7086
rfoot 16.1548 -6.72301
rtoes 22.3523
lfemur -25.5845 4.71018 -16.9827
ltibia 29.7138
lfoot 21.6248 -3.72008
ltoes 6.03819
193
root 0.201408 20.3246 -7.74178 7.24447 4.35328 0.0812402
lowerback 4.38388 -0.872481 -1.92842
upperback 3.38969 -1.22423 1.28679
thorax 1.09533 -0.659776 2.44341
lowerneck -11.385 -0.42288 -2.96011
upperneck 32.6952 -0.724818 2.66012
head 12.7761 -0.33485 1.44742
rclavicle 2.28105e-014 -7.95139e-016
rhumerus -18.7401 -5.36858 -81.7543
rradius 34.8227
rwrist 24.9975
rhand -17.4598 -23.162
rfingers 7.12502
rthumb 8.79168 -52.9589
lclavicle 2.28105e-014 -7.95139e-016
lhumerus -12.9243 -10.6996 88.2741
lradius 33.5685
lwrist 21.634
lhand -26.8659 -5.31101
lfingers 7.12502
lthumb -0.290522 24.6685
rfemur -25.8999 -5.04764 18.0754
rtibia 28.4646
rfoot 16.1669 -6.4879
rtoes 21.8
lfemur -26.0722 4.71995 -17.0023
ltibia 28.4283
lfoot 21.0883 -4.35349
ltoes 5.40581
194
root 0.199394 20.2484 -7.63492 7.32742 4.28312 0.0436626
lowerback 4.46385 -0.808845 -1.873
upperback 3.37835 -1.13884 1.27574
thorax 1.03268 -0.615065 2.39971
lowerneck -11.4313 -0.455072 -2.94415
upperneck 32.7041 -0.790968 2.71242
head 12.7923 -0.354812 1.45599
rclavicle 1.43125e-014 -4.57205e-015
rhumerus -18.7772 -5.94 -81.7328
rradius 34.04
rwrist 25.4212
rhand -17.5829 -23.3029
rfingers 7.12502
rthumb 8.67291 -53.1048
lclavicle 1.43125e-014 -4.57205e-015
lhumerus -13.0428 -10.084 88.3778
lradius 32.7353
lwrist 21.1998
lhand -26.9637 -5.54776
lfingers 7.12502
lthumb -0.385064 24.4316
rfemur -26.5971 -4.98976 18.09
rtibia 27.2742
rfoot 16.2371 -6.19341
rtoes 21.0787
lfemur -26.485 4.74513 -17.0299
ltibia 27.0766
lfoot 20.5573 -4.87566
ltoes 4.62941
195
root 0.197159 20.1585 -7.52487 7.38369 4.19298 0.0188257
lowerback 4.50782 -0.735399 -1.83528
upperback 3.37257 -1.04044 1.25936
thorax 0.995575 -0.56451 2.35916
lowerneck -11.4411 -0.488721 -2.91534
upperneck 32.7066 -0.856861 2.74503
head 12.7978 -0.375694 1.45448
rclavicle -7.40473e-015 1.31198e-014
rhumerus -18.8234 -6.52199 -81.7079
rradius 33.2164
rwrist 25.9182
rhand -17.7057 -23.4544
rfingers 7.12502
rthumb 8.55436 -53.2611
lclavicle -7.40473e-015 1.31198e-014
lhumerus -13.1655 -9.43431 88.4829
lradius 31.8308
lwrist 20.675
lhand -27.0509 -5.87107
lfingers 7.12502
lthumb -0.469279 24.1082
rfemur -27.2491 -4.92901 18.091
rtibia 26.1739
rfoot 16.2713 -5.82625
rtoes 20.0733
lfemur -26.8149 4.78673 -17.0705
ltibia 25.6929
lfoot 20.0196 -5.23555
ltoes 3.62179
